HIERARCHY
ROOT root
{
	OFFSET	0	13.1	24.9
	CHANNELS 6  Xposition Yposition Zposition Xrotation Yrotation Zrotation
	JOINT spine_1
	{
		OFFSET	0	9.99999	0
		CHANNELS 3  Xrotation Yrotation Zrotation
		JOINT spine_2
		{
			OFFSET	0	112	-10
			CHANNELS 3  Xrotation Yrotation Zrotation
			JOINT spine_3
			{
				OFFSET	0	206.5	19.3
				CHANNELS 3  Xrotation Yrotation Zrotation
				JOINT spine_4
				{
					OFFSET	0	110.4	14.6
					CHANNELS 3  Xrotation Yrotation Zrotation
					JOINT neck_1
					{
						OFFSET	0	71.8	-50.3
						CHANNELS 3  Xrotation Yrotation Zrotation
						JOINT neck_2
						{
							OFFSET	0	86.2	-25.8
							CHANNELS 3  Xrotation Yrotation Zrotation
							JOINT head_ee
							{
								OFFSET	0	179.8	-8.7
								CHANNELS 3  Xrotation Yrotation Zrotation
								End Site
								{
									OFFSET	1	0	0
								}
							}
						}
					}
					JOINT left_clavicle
					{
						OFFSET	-43.2	22.4	-70.8
						CHANNELS 3  Xrotation Yrotation Zrotation
						JOINT left_shoulder
						{
							OFFSET	-93.9	-5.79999	48.7
							CHANNELS 3  Xrotation Yrotation Zrotation
							JOINT left_elbow
							{
								OFFSET	-291.4	-30.8	15.2
								CHANNELS 3  Xrotation Yrotation Zrotation
								JOINT left_lowarm_twist
								{
									OFFSET	-110.7	-3.89999	13.6
									CHANNELS 3  Xrotation Yrotation Zrotation
									JOINT left_hand
									{
										OFFSET	-110.7	-3.89999	13.6
										CHANNELS 3  Xrotation Yrotation Zrotation
										JOINT left_ee
										{
											OFFSET	-80.8	-5.10001	12.1
											CHANNELS 3  Xrotation Yrotation Zrotation
											End Site
											{
												OFFSET	1	0	0
											}
										}
									}
								}
							}
						}
					}
					JOINT right_clavicle
					{
						OFFSET	43.2	22.4	-70.8
						CHANNELS 3  Xrotation Yrotation Zrotation
						JOINT right_shoulder
						{
							OFFSET	93.9	-5.79999	48.7
							CHANNELS 3  Xrotation Yrotation Zrotation
							JOINT right_elbow
							{
								OFFSET	291.4	-30.8	15.2
								CHANNELS 3  Xrotation Yrotation Zrotation
								JOINT right_lowarm_twist
								{
									OFFSET	110.7	-3.89999	13.6
									CHANNELS 3  Xrotation Yrotation Zrotation
									JOINT right_hand
									{
										OFFSET	110.7	-3.89999	13.6
										CHANNELS 3  Xrotation Yrotation Zrotation
										JOINT right_ee
										{
											OFFSET	80.8	-5.10001	12.1
											CHANNELS 3  Xrotation Yrotation Zrotation
											End Site
											{
												OFFSET	1	0	0
											}
										}
									}
								}
							}
						}
					}
				}
			}
		}
	}
	JOINT left_hip
	{
		OFFSET	-82.8	-127.5	0.300001
		CHANNELS 3  Xrotation Yrotation Zrotation
		JOINT left_knee
		{
			OFFSET	-28.2	-396.7	2.2
			CHANNELS 3  Xrotation Yrotation Zrotation
			JOINT left_ankle
			{
				OFFSET	-11.7	-411.3	35.4
				CHANNELS 3  Xrotation Yrotation Zrotation
				JOINT left_toes
				{
					OFFSET	0	-60	-88.6
					CHANNELS 3  Xrotation Yrotation Zrotation
					JOINT left_foot_ee
					{
						OFFSET	-22.5	-16.5	-42.2
						CHANNELS 3  Xrotation Yrotation Zrotation
						End Site
						{
							OFFSET	1	0	0
						}
					}
				}
			}
		}
	}
	JOINT right_hip
	{
		OFFSET	82.8	-127.5	0.300001
		CHANNELS 3  Xrotation Yrotation Zrotation
		JOINT right_knee
		{
			OFFSET	28.2	-396.7	2.2
			CHANNELS 3  Xrotation Yrotation Zrotation
			JOINT right_ankle
			{
				OFFSET	11.7	-411.3	35.4
				CHANNELS 3  Xrotation Yrotation Zrotation
				JOINT right_toes
				{
					OFFSET	0	-60	-88.6
					CHANNELS 3  Xrotation Yrotation Zrotation
					JOINT right_foot_ee
					{
						OFFSET	22.5	-16.5	-42.2
						CHANNELS 3  Xrotation Yrotation Zrotation
						End Site
						{
							OFFSET	1	0	0
						}
					}
				}
			}
		}
	}
}
MOTION
Frames: 10
Frame Time: 0.02
3467.08602364 741.356 -1494.94425692 137.195217463 81.8924383352 -131.391960591 -1.9107 -0.166465 -3.55851 -1.90366 0.060163 -3.56189 -1.90112 0.923253 -3.44083 -1.91745 0.368612 -3.5433 -15.5103 0.926289 8.02829 -15.3372 -2.93394 7.88603 -0.0 0.0 -0.0 5.98209 23.7373 10.9776 -28.9927 -31.6266 60.0129 0.914962 -24.3819 0.197674 -82.4762 -8.13505 5.23956 -1.4316 13.5476 -3.40371 -0.0 0.0 -0.0 6.1899 4.49661 -11.8956 1.93312 -8.77671 -67.7492 2.0712 45.7301 -0.8735 79.7521 3.80999 8.59573 3.46752 -30.474 -32.0706 0.0 0.0 0.0 38.642 60.8477 -40.9856 -4.89286 0.170304 0.731369 32.0876 -29.797 -5.04948 -16.7902 0.0 0.0 -0.0 0.0 -0.0 -5.26297 17.1108 -13.6018 -12.0353 -0.305512 -1.81835 40.0088 0.324637 4.87916 -28.6157 0.0 0.0 0.0 0.0 0.0 
3467.83278047 741.356 -1498.57037117 126.091176277 83.1891763741 -120.194462405 -1.9107 -0.166465 -3.55851 -1.90366 0.060163 -3.56189 -1.90112 0.923253 -3.44083 -1.91745 0.368612 -3.5433 -15.5103 0.926289 8.02829 -15.3372 -2.93394 7.88603 -0.0 0.0 -0.0 5.98209 23.7373 10.9776 -28.9927 -31.6266 60.0129 0.914962 -24.3819 0.197674 -82.4762 -8.13505 5.23956 -1.4316 13.5476 -3.40371 -0.0 0.0 -0.0 6.1899 4.49661 -11.8956 1.93312 -8.77671 -67.7492 2.0712 45.7301 -0.8735 79.7521 3.80999 8.59573 3.46752 -30.474 -32.0706 0.0 0.0 0.0 38.642 60.8477 -40.9856 -4.89286 0.170304 0.731369 32.0876 -29.797 -5.04948 -16.7902 0.0 0.0 -0.0 0.0 -0.0 -5.26297 17.1108 -13.6018 -12.0353 -0.305512 -1.81835 40.0088 0.324637 4.87916 -28.6157 0.0 0.0 0.0 0.0 0.0 
3467.77065479 741.356 -1498.29089623 127.09416418 83.0996428586 -121.204672471 -1.9107 -0.166465 -3.55851 -1.90366 0.060163 -3.56189 -1.90112 0.923253 -3.44083 -1.91745 0.368612 -3.5433 -15.5103 0.926289 8.02829 -15.3372 -2.93394 7.88603 -0.0 0.0 -0.0 5.98209 23.7373 10.9776 -28.9927 -31.6266 60.0129 0.914962 -24.3819 0.197674 -82.4762 -8.13505 5.23956 -1.4316 13.5476 -3.40371 -0.0 0.0 -0.0 6.1899 4.49661 -11.8956 1.93312 -8.77671 -67.7492 2.0712 45.7301 -0.8735 79.7521 3.80999 8.59573 3.46752 -30.474 -32.0706 0.0 0.0 0.0 38.642 60.8477 -40.9856 -4.89286 0.170304 0.731369 32.0876 -29.797 -5.04948 -16.7902 0.0 0.0 -0.0 0.0 -0.0 -5.26297 17.1108 -13.6018 -12.0353 -0.305512 -1.81835 40.0088 0.324637 4.87916 -28.6157 0.0 0.0 0.0 0.0 0.0 
3467.41175325 741.356 -1496.60312946 132.604602002 82.5189471357 -126.758654024 -1.9107 -0.166465 -3.55851 -1.90366 0.060163 -3.56189 -1.90112 0.923253 -3.44083 -1.91745 0.368612 -3.5433 -15.5103 0.926289 8.02829 -15.3372 -2.93394 7.88603 -0.0 0.0 -0.0 5.98209 23.7373 10.9776 -28.9927 -31.6266 60.0129 0.914962 -24.3819 0.197674 -82.4762 -8.13505 5.23956 -1.4316 13.5476 -3.40371 -0.0 0.0 -0.0 6.1899 4.49661 -11.8956 1.93312 -8.77671 -67.7492 2.0712 45.7301 -0.8735 79.7521 3.80999 8.59573 3.46752 -30.474 -32.0706 0.0 0.0 0.0 38.642 60.8477 -40.9856 -4.89286 0.170304 0.731369 32.0876 -29.797 -5.04948 -16.7902 0.0 0.0 -0.0 0.0 -0.0 -5.26297 17.1108 -13.6018 -12.0353 -0.305512 -1.81835 40.0088 0.324637 4.87916 -28.6157 0.0 0.0 0.0 0.0 0.0 
3463.12896267 740.751 -1492.63885698 143.814100492 79.9811795764 -138.06106676 -2.00498 -0.0891141 -3.61977 -1.9977 0.141248 -3.61811 -2.00022 1.02176 -3.47389 -2.01676 0.46067 -3.59147 -15.8735 0.509006 7.68333 -15.7197 -3.48166 7.41175 -0.0 0.0 -0.0 5.79865 23.8961 10.7099 -30.0723 -31.3044 59.8769 0.8739 -23.4078 0.181041 -82.1366 -8.09221 5.24588 -1.45177 14.4139 -3.13157 -0.0 0.0 -0.0 6.72375 7.91074 -12.8866 4.08612 -8.57066 -66.0105 1.96542 44.2291 -0.798722 80.2968 3.8728 8.62641 3.54616 -30.4293 -32.581 0.0 0.0 0.0 40.5788 58.7327 -40.6299 -5.43848 0.185406 0.813741 33.6606 -31.578 -5.35354 -16.3306 0.0 0.0 -0.0 0.0 -0.0 -5.85788 17.3964 -13.8068 -11.9257 -0.304463 -1.80156 38.98 0.440943 4.79055 -29.0519 0.0 0.0 0.0 0.0 0.0 
3451.51195298 739.557 -1486.9013111 150.31625074 76.8696001352 -144.092682407 -2.23477 -0.0259001 -3.42501 -2.22827 0.191965 -3.41973 -2.23383 1.03571 -3.26494 -2.24834 0.507387 -3.38736 -15.5082 -0.345111 6.94597 -15.3935 -4.73214 6.43697 -0.0 0.0 -0.0 5.35383 23.8513 10.0909 -31.1489 -30.9422 59.3811 0.83529 -22.4785 0.165989 -81.9434 -8.06783 5.24936 -1.28017 13.6667 -2.40106 -0.0 0.0 -0.0 7.06863 12.6199 -13.4131 5.47512 -6.81664 -64.6782 1.62984 38.9135 -0.575805 80.0142 3.84019 8.61057 3.45836 -30.2945 -31.991 0.0 0.0 0.0 43.1616 57.0134 -41.3152 -6.21689 0.20559 0.931494 34.4109 -31.6871 -5.4481 -16.0951 0.0 0.0 -0.0 0.0 -0.0 -6.86902 16.2379 -14.45 -12.9243 -0.312828 -1.95456 39.9771 0.733114 4.87975 -29.4963 0.0 0.0 0.0 0.0 0.0 
3444.5745604 741.222 -1484.43873715 151.217520203 75.2262031507 -145.165825354 -2.26042 0.0519287 -3.42359 -2.25394 0.269547 -3.41337 -2.26432 1.11111 -3.23889 -2.27848 0.585955 -3.37353 -15.6419 -0.0638611 6.65186 -15.5329 -4.00595 6.24944 -0.0 0.0 -0.0 5.04846 23.6096 9.6751 -32.3611 -30.5565 59.7139 0.782787 -21.1947 0.146459 -81.7941 -8.04898 5.25199 -0.991167 13.8983 -0.492045 -0.0 0.0 -0.0 7.82737 17.2032 -14.7897 7.08237 -6.31349 -63.6179 1.44103 35.5188 -0.46156 79.0766 3.7325 8.55686 3.24781 -30.1292 -30.6076 0.0 0.0 0.0 44.9301 56.0627 -39.9904 -6.026 0.200788 0.902592 34.1298 -31.3966 -5.39516 -15.9973 0.0 0.0 -0.0 0.0 -0.0 -7.79191 16.3922 -14.6827 -13.281 -0.315169 -2.00922 39.9679 -0.697521 4.86843 -29.6664 0.0 0.0 0.0 0.0 0.0 
3432.79420854 738.634 -1480.77762249 152.365948259 74.1334322251 -146.699530753 -2.2038 0.156876 -3.29166 -2.19785 0.365901 -3.27504 -2.21392 1.16731 -3.08193 -2.22656 0.666198 -3.22742 -15.2222 -0.28023 6.16359 -15.131 -4.17817 5.72837 -0.0 0.0 -0.0 4.80284 23.5423 9.33428 -33.5382 -30.2689 59.8853 0.705886 -19.2735 0.119859 -81.6215 -8.02717 5.25497 -0.67178 13.176 1.1947 -0.0 0.0 -0.0 8.28987 21.9043 -15.4522 8.48214 -5.05745 -62.4909 1.24156 31.5915 -0.351238 77.9873 3.60851 8.49226 2.96952 -30.0911 -28.8359 0.0 0.0 0.0 47.4503 54.393 -40.4383 -7.85561 0.24284 1.1802 32.226 -31.08 -5.14923 -16.1943 0.0 0.0 -0.0 0.0 -0.0 -10.3913 15.6593 -14.1066 -10.5422 -0.288472 -1.58989 40.1732 -2.72402 4.87638 -29.9214 0.0 0.0 0.0 0.0 0.0 
3417.43949187 730.883 -1475.18975071 153.634693261 72.4915629893 -148.452869028 -2.21704 -0.114436 -3.10188 -2.2117 0.0830798 -3.10288 -2.21112 0.850005 -2.98545 -2.22337 0.368078 -3.08211 -17.9488 -0.619461 4.53521 -17.908 -3.65834 4.00088 -0.0 0.0 -0.0 4.10862 22.6044 8.37689 -35.8914 -29.9845 60.9223 0.618319 -17.0298 0.0925736 -80.4089 -7.87369 5.27405 0.142023 11.1285 5.50583 -0.0 0.0 -0.0 9.60553 28.1984 -17.7372 11.8719 -2.31579 -60.261 1.08473 28.2502 -0.272977 75.5238 3.33278 8.33758 2.76856 -28.4742 -27.3102 0.0 0.0 0.0 49.9049 51.7803 -41.4176 -13.6377 0.31717 2.06392 29.2559 -28.8266 -4.64476 -14.4676 0.0 0.0 -0.0 0.0 -0.0 -13.8481 14.2797 -13.799 -7.57317 -0.236928 -1.13726 40.854 -7.13527 4.93477 -30.1673 0.0 0.0 0.0 0.0 0.0 
3403.14665952 726.93 -1469.76764121 151.703767139 71.5760764012 -146.879335697 -2.25267 -0.0728757 -3.01214 -2.24763 0.118854 -3.01068 -2.24916 0.863713 -2.88668 -2.26056 0.397191 -2.98675 -20.8686 -1.00841 4.49983 -20.84 -4.16415 3.74254 -0.0 0.0 -0.0 3.89832 21.9079 8.08063 -36.7615 -29.8232 61.0551 0.515178 -14.3167 0.0647021 -80.484 -7.88321 5.27296 0.590813 9.87984 7.90412 -0.0 0.0 -0.0 9.86103 28.06 -18.3222 12.9162 -0.164224 -59.9571 1.13278 29.298 -0.296112 72.25 2.97712 8.114 2.5616 -28.8566 -26.0909 0.0 0.0 0.0 49.3974 49.9939 -39.8836 -15.5524 0.322088 2.35764 25.0663 -25.3089 -3.93118 -13.2703 0.0 0.0 -0.0 0.0 -0.0 -18.6916 14.106 -13.323 -1.08003 -0.0429617 -0.160175 41.079 -9.89777 4.96917 -30.9327 0.0 0.0 0.0 0.0 0.0 
